<?xml version="1.0" encoding="UTF-8" standalone="no"?>
<!DOCTYPE svg PUBLIC "-//W3C//DTD SVG 1.1//EN"
 "http://www.w3.org/Graphics/SVG/1.1/DTD/svg11.dtd">
<!-- Generated by graphviz version 2.38.0 (20140413.2041)
 -->
<!-- Title: models_diagram Pages: 1 -->
<svg width="613pt" height="158pt"
 viewBox="0.00 0.00 613.34 158.00" xmlns="http://www.w3.org/2000/svg" xmlns:xlink="http://www.w3.org/1999/xlink">
<g id="graph0" class="graph" transform="scale(1 1) rotate(0) translate(4 154)">
<title>models_diagram</title>
<polygon fill="none" stroke="none" points="-4,4 -4,-154 609.343,-154 609.343,4 -4,4"/>
<!-- _diagram_info -->
<g id="node1" class="node"><title>_diagram_info</title>
<text text-anchor="start" x="8" y="-135.6" font-family="Times,serif" font-size="13.00">Models diagram</text>
<text text-anchor="start" x="8" y="-121.6" font-family="Times,serif" font-size="13.00">Date: Feb 22 2017 &#45; 12:10</text>
<text text-anchor="start" x="8" y="-107.6" font-family="Times,serif" font-size="13.00">Migration version: 20170222143459</text>
<text text-anchor="start" x="8" y="-93.6" font-family="Times,serif" font-size="13.00">Generated by RailRoady 1.5.2</text>
<text text-anchor="start" x="8" y="-79.6" font-family="Times,serif" font-size="13.00">http://railroady.prestonlee.com</text>
</g>
<!-- Item -->
<g id="node2" class="node"><title>Item</title>
<ellipse fill="none" stroke="black" cx="339" cy="-18" rx="27.0966" ry="18"/>
<text text-anchor="middle" x="339" y="-14.3" font-family="Times,serif" font-size="14.00">Item</text>
</g>
<!-- Categorium -->
<g id="node3" class="node"><title>Categorium</title>
<ellipse fill="none" stroke="black" cx="285" cy="-111" rx="52.7911" ry="18"/>
<text text-anchor="middle" x="285" y="-107.3" font-family="Times,serif" font-size="14.00">Categorium</text>
</g>
<!-- Categorium&#45;&gt;Item -->
<g id="edge1" class="edge"><title>Categorium&#45;&gt;Item</title>
<path fill="none" stroke="#4001a7" d="M299.084,-86.2655C306.873,-73.1405 316.537,-56.8543 324.405,-43.5948"/>
<ellipse fill="none" stroke="#4001a7" cx="296.946" cy="-89.8693" rx="4.00002" ry="4.00002"/>
<polygon fill="#4001a7" stroke="#4001a7" points="324.417,-43.5745 333.39,-37.2711 326.969,-39.2746 329.521,-34.9747 329.521,-34.9747 329.521,-34.9747 326.969,-39.2746 325.651,-32.6782 324.417,-43.5745 324.417,-43.5745"/>
</g>
<!-- ApplicationRecord -->
<g id="node4" class="node"><title>ApplicationRecord</title>
<ellipse fill="none" stroke="black" cx="528" cy="-111" rx="77.1866" ry="18"/>
<text text-anchor="middle" x="528" y="-107.3" font-family="Times,serif" font-size="14.00">ApplicationRecord</text>
</g>
<!-- Usuario -->
<g id="node5" class="node"><title>Usuario</title>
<ellipse fill="none" stroke="black" cx="394" cy="-111" rx="38.1938" ry="18"/>
<text text-anchor="middle" x="394" y="-107.3" font-family="Times,serif" font-size="14.00">Usuario</text>
</g>
<!-- Usuario&#45;&gt;Item -->
<g id="edge2" class="edge"><title>Usuario&#45;&gt;Item</title>
<path fill="none" stroke="#bd048e" d="M379.655,-86.2655C371.722,-73.1405 361.879,-56.8543 353.865,-43.5948"/>
<ellipse fill="none" stroke="#bd048e" cx="381.843" cy="-89.8859" rx="4.00002" ry="4.00002"/>
<polygon fill="#bd048e" stroke="#bd048e" points="353.828,-43.533 352.506,-32.647 351.241,-39.2538 348.655,-34.9747 348.655,-34.9747 348.655,-34.9747 351.241,-39.2538 344.804,-37.3024 353.828,-43.533 353.828,-43.533"/>
</g>
</g>
</svg>
